<?xml version="1.0" encoding="iso-8859-1"?>
<!-- Generator: Adobe Illustrator 24.1.2, SVG Export Plug-In . SVG Version: 6.00 Build 0)  -->
<svg version="1.1" id="Layer_1" xmlns="http://www.w3.org/2000/svg" xmlns:xlink="http://www.w3.org/1999/xlink" x="0px" y="0px"
	 viewBox="0 0 48 48" style="enable-background:new 0 0 48 48;" xml:space="preserve">
<linearGradient id="SVGID_1_" gradientUnits="userSpaceOnUse" x1="11.9046" y1="1.9516" x2="17.9405" y2="40.4005">
	<stop  offset="0" style="stop-color:#3DBFFC"/>
	<stop  offset="1" style="stop-color:#183EFB"/>
</linearGradient>
<path style="fill:url(#SVGID_1_);" d="M17.572,37.076L20,35.619V10.603c0-1.632-0.796-3.161-2.133-4.096L12.36,2.652
	C11.366,1.956,10,2.667,10,3.881V32.5c0,0.22,0.02,0.555,0.033,0.772C10.369,36.867,14.382,38.99,17.572,37.076z"/>
<linearGradient id="SVGID_2_" gradientUnits="userSpaceOnUse" x1="14.3417" y1="41.4781" x2="34.1209" y2="25.575">
	<stop  offset="0" style="stop-color:#33BEF0"/>
	<stop  offset="0.1594" style="stop-color:#32B9F0"/>
	<stop  offset="0.3408" style="stop-color:#2FACF2"/>
	<stop  offset="0.533" style="stop-color:#2A95F4"/>
	<stop  offset="0.7328" style="stop-color:#2475F6"/>
	<stop  offset="0.9364" style="stop-color:#1B4CFA"/>
	<stop  offset="1" style="stop-color:#183EFB"/>
</linearGradient>
<path style="fill:url(#SVGID_2_);" d="M32.682,27.904L20,35.5v0l-2.428,1.457c-3.191,1.915-7.203-0.209-7.54-3.804
	C10.372,38.922,15.145,43.5,21,43.5c1.963,0,3.888-0.536,5.568-1.551l6.834-4.126c0.817-0.493,1.522-1.075,2.15-1.707
	C37.906,33.415,36.739,28.669,32.682,27.904z"/>
<linearGradient id="SVGID_3_" gradientUnits="userSpaceOnUse" x1="24.2231" y1="17.1126" x2="45.6985" y2="38.588">
	<stop  offset="0" style="stop-color:#3DBFFD"/>
	<stop  offset="1" style="stop-color:#1DE9B6"/>
</linearGradient>
<path style="fill:url(#SVGID_3_);" d="M33.636,19.568l-7.607-3.803c-1.234-0.617-2.576,0.618-2.064,1.899l1.755,5.886
	c0.499,1.248,1.479,2.242,2.719,2.758L32.5,28c4.057,0.766,5.352,5.251,3.052,8.117C40.399,31.24,40.088,22.794,33.636,19.568z"/>
<g id="&#x421;&#x43B;&#x43E;&#x439;_1_1_">
</g>
</svg>